<?xml version="1.0" encoding="utf-8"?>
<svg width="474px" height="111px" viewBox="0 0 474 111" version="1.1" xmlns:xlink="http://www.w3.org/1999/xlink" xmlns="http://www.w3.org/2000/svg">
  <desc>Created by Mauro M.</desc>
  <g id="MCVERSIONS">
    <g id="MC" fill="#6C63FF">
      <path d="M54.5002 28.4652L54.5002 28.4659L61.0716 5.02905L76.1776 5.02905L76.1776 105.917L61.6019 105.917L61.6055 57.1345L47.9353 105.917L32.8504 105.917L32.8322 105.851L19.1838 57.1476L19.1838 105.917L4.608 105.917L4.608 5.02905L19.7147 5.02905L26.2862 28.4652L26.3291 28.6158L26.3807 28.8019L40.3965 78.8185L54.4056 28.8019L54.4122 28.7779L54.4427 28.6696L54.5002 28.4652ZM112.786 105.917L101.636 105.917C92.7584 105.917 85.536 98.6987 85.536 89.8252L85.536 21.1213C85.536 12.2478 92.7584 5.02905 101.636 5.02905L112.786 5.02905C121.09 5.02905 127.973 11.2492 128.797 19.4972C128.851 20.0543 128.878 20.6005 128.878 21.1213L128.878 33.9842L114.309 33.9842L114.309 21.1213C114.309 20.2812 113.626 19.5975 112.786 19.5975L101.636 19.5975C100.791 19.5975 100.104 20.2812 100.104 21.1213L100.104 89.8252C100.104 90.6653 100.791 91.349 101.636 91.349L112.786 91.349C113.626 91.349 114.309 90.6653 114.309 89.8252L114.309 76.9623L128.878 76.9623L128.878 89.8252C128.878 90.3467 128.85 90.893 128.797 91.4486C127.973 99.6973 121.09 105.917 112.786 105.917Z" />
    </g>
    <g id="TRADING" fill="#3F3D56">
      <path d="M167.052 5.02686L152.483 5.02686L152.483 5.02905L138.096 5.02905L138.096 19.5983L152.483 19.5983L152.483 105.917L167.052 105.917L167.052 19.5983L181.439 19.5983L181.439 5.02905L167.052 5.02905L167.052 5.02686ZM272.002 105.84L269.967 91.5316L260.122 91.5316L258.075 105.917L243.36 105.917L257.707 5.02686L272.379 5.02686L272.408 5.18106L286.737 105.917L272.013 105.917L272.002 105.84ZM339.406 21.1191C339.406 12.2456 332.187 5.02686 323.314 5.02686L296.064 5.02686L296.064 105.919L323.314 105.919C332.188 105.919 339.407 98.7001 339.407 89.8267L339.407 21.1191L339.406 21.1191ZM363.193 5.02686L363.193 105.917L348.624 105.917L348.624 5.02686L363.193 5.02686ZM233.998 59.3718L233.998 21.1213C233.998 12.2478 226.779 5.02905 217.906 5.02905L190.656 5.02905L190.656 19.5975L190.659 19.5975L190.659 60.8955L190.656 60.8955L190.656 75.464L190.659 75.464L190.659 105.919L205.228 105.919L205.228 75.464L210.363 75.464L218.88 105.851L218.899 105.917L234.035 105.917L225.033 73.7962C230.563 71.0637 233.998 65.5446 233.998 59.3718ZM401.301 53.8018L387.653 5.09596L387.634 5.02905L372.528 5.02905L372.528 105.917L387.096 105.917L387.096 57.1243L400.751 105.851L400.77 105.917L415.877 105.917L415.877 5.02905L401.301 5.02905L401.301 53.8018ZM468.575 49.5848L468.575 105.917L441.332 105.917C432.454 105.917 425.232 98.6987 425.232 89.8252L425.232 21.1213C425.232 12.2478 432.454 5.02905 441.332 5.02905L452.482 5.02905C460.786 5.02905 467.669 11.2492 468.493 19.4972C468.547 20.0543 468.574 20.6005 468.574 21.1213L468.574 33.9842L454.005 33.9842L454.005 21.1213C454.005 20.2812 453.322 19.5975 452.482 19.5975L441.332 19.5975C440.487 19.5975 439.8 20.2812 439.8 21.1213L439.8 89.8252C439.8 90.6653 440.487 91.349 441.332 91.349L452.482 91.349C453.322 91.349 454.005 90.6653 454.005 89.8252L454.005 76.9623L454.006 76.9623L454.006 49.5848L468.575 49.5848ZM324.837 21.1191L324.837 89.8267C324.837 90.6668 324.154 91.3504 323.314 91.3504L310.632 91.3504L310.632 19.5946L323.314 19.5946C324.154 19.5946 324.837 20.279 324.837 21.1191ZM219.429 59.3725C219.429 60.2126 218.746 60.8963 217.906 60.8963L205.228 60.8963L205.228 19.5983L217.906 19.5983C218.746 19.5983 219.429 20.282 219.429 21.122L219.429 59.3725ZM265.045 56.925L262.194 76.9623L267.895 76.9623L265.045 56.925Z" />
    </g>
  </g>
</svg>
